<svg width="85" height="31" xmlns="http://www.w3.org/2000/svg"><g fill="#1A1A1A" fill-rule="nonzero"><path d="M47.037 15.251v14.415h-4.895v-2.208c-1.295 1.797-3.594 2.925-6.894 2.925-4.053 0-7.647-1.755-7.647-6.1 0-4.931 4.387-6.644 9.234-7.522l5.014-.919v-.501c0-2.09-1.546-3.26-4.01-3.26-2.926 0-4.43 1.338-6.644 3.463l-3.428-3.128c2.675-3.182 5.767-4.811 9.988-4.811 6.142 0 9.282 3.14 9.282 7.646zm-5.182 5.724v-1.253l-3.593.752c-3.217.669-5.348 1.42-5.348 3.426 0 1.337 1.211 2.131 3.259 2.131 2.752 0 5.676-1.337 5.676-5.056h.006zM64.329 8.691l-.961 4.722c-1.128-.293-2.006-.418-2.716-.418-2.883 0-4.68 2.298-4.68 6.142v10.53H50.54V8.314h5.057v3.134C56.6 9.4 58.312 8.064 60.945 8.064c1.17 0 2.089.251 3.384.627zM81.878 22.814l3.05 3.343c-3.133 3.175-6.058 4.178-9.526 4.178-6.895 0-11.198-4.43-11.198-11.24 0-6.602 4.01-11.49 10.744-11.49 6.518 0 9.986 4.094 9.986 10.654 0 .669-.041 1.672-.083 2.131H69.51c.459 3.092 2.297 5.349 6.016 5.349 2.507 0 3.844-.836 6.351-2.925zm-12.242-6.31h9.992c-.21-2.84-1.88-4.637-4.847-4.637-2.89 0-4.56 1.88-5.145 4.638zM12.075 0H0v18.84l5.85 5.85V4.93h5.348c4.847 0 8.357 3.134 8.357 9.91 0 6.774-3.51 9.902-8.357 9.902H5.896l4.932 4.924h1.247c8.566 0 13.49-6.184 13.49-14.833C25.566 6.184 20.642 0 12.076 0z"/></g></svg>